# xmcd
#
# Track frame offsets:
#	150
#	19207
#	31605
#	44319
#	60002
#	75574
#	87895
#	101372
#	118243
#	144795
#	163408
#	177696
#	205286
#
# Disc length: 2812 seconds
#
# Revision: 1
# Processed by: cddbd v1.5.2PL0 Copyright (c) Steve Scherf et al.
# Submitted via: audiograbber 1.83.01
#
DISCID=a10afa0d
DTITLE=Nathan James and Ben Hernandez - Hollerin'
DYEAR=2007
DGENRE=American Roots
TTITLE0=Don't Forget it
TTITLE1=You Better Learn
TTITLE2=I Don't Have to Ask Myself
TTITLE3=My Backyard
TTITLE4=Sweet Maggie
TTITLE5=Hollerin
TTITLE6=Reach Down Your Hand
TTITLE7=Sweet Mama
TTITLE8=Made me Weep
TTITLE9=Lonesome Hobo Blues
TTITLE10=Spoon n Guitar Rag
TTITLE11=My Special Rider
TTITLE12=Glory Day
EXTD=
EXTT0=
EXTT1=
EXTT2=
EXTT3=
EXTT4=
EXTT5=
EXTT6=
EXTT7=
EXTT8=
EXTT9=
EXTT10=
EXTT11=
EXTT12=
PLAYORDER=
